<svg width="64" height="53" viewBox="0 0 64 53" fill="none" xmlns="http://www.w3.org/2000/svg">
<path d="M9.38199 0.753297C6.98863 1.64682 5.93555 2.38079 3.92512 4.58268C1.21264 7.55045 0 10.9969 0 15.7836C0 24.1764 4.4357 29.5375 11.9987 30.2715C13.8177 30.431 14.4559 30.6544 15.3175 31.3565C15.8919 31.867 17.1046 32.6329 17.9981 33.0797C20.0085 34.1009 22.019 36.207 23.4869 38.8238C25.4654 42.3659 29.5501 47.3441 31.4648 48.6206C32.9327 49.5779 41.8998 52.9606 42.9848 52.9606C44.1975 52.9606 48.0907 50.1843 49.4629 48.3653C50.9308 46.3868 52.2392 43.802 55.0155 37.3239C56.1643 34.6114 57.2493 32.1862 57.4089 31.9628C57.7918 31.3245 59.1321 32.1223 61.1106 34.1009C61.9722 34.9944 62.77 35.7283 62.8976 35.7283C63.4082 35.7283 63.8869 31.9628 63.7593 29.2184C63.5678 24.9742 62.4509 23.0275 58.813 20.6023C56.8664 19.2939 56.643 18.177 58.2066 17.5388C58.813 17.2835 58.813 17.2516 57.9833 17.2516C57.5046 17.2196 56.0686 17.6664 54.7921 18.2089C50.9308 19.8683 49.3991 19.5173 48.0907 16.6133L47.9606 16.312C47.7427 15.8076 47.0688 15.7113 46.7185 16.1347V16.1347C46.5312 16.3652 46.3634 16.5957 46.2328 16.7909C46.0229 17.1046 45.8832 17.5388 45.5059 17.5388V17.5388C44.8357 17.5388 44.2613 15.4326 44.4528 13.6775C44.7081 11.667 45.9207 9.36941 47.612 7.77383C48.9204 6.49737 51.601 4.77415 52.2073 4.77415C52.3668 4.77415 51.6967 5.63576 50.6755 6.72075C48.4736 9.01838 48.2183 9.88 50.2926 7.9653C51.0904 7.23134 52.4945 6.3059 53.388 5.89105C54.9836 5.15709 59.1321 4.16783 60.6957 4.10401C61.7807 4.0721 58.9725 2.89137 56.8983 2.50843C52.0796 1.61491 46.0164 4.9018 43.7826 9.65662C42.9529 11.4118 42.4104 14.571 42.6657 16.1027C42.8253 17.1239 42.6976 17.3792 41.2297 18.9429C38.964 21.3362 38.4534 23.1871 38.7087 27.9738L38.7695 29.1187C38.8387 30.4226 37.7448 31.4898 36.443 31.3884V31.3884C33.539 31.1969 31.9115 30.9735 31.9115 30.7821C31.9115 30.6863 32.5817 29.729 33.3795 28.644C35.3261 25.9953 35.9005 24.7827 36.7302 21.8149C37.2408 19.9002 37.3684 18.7514 37.2727 16.7729C36.9216 10.7735 33.7624 5.57194 29.1033 3.27431C27.4439 2.47652 26.9652 2.38079 23.7741 2.38079C20.5829 2.34887 20.1362 2.28505 18.9874 1.55109C16.243 -0.172138 12.6689 -0.491253 9.38199 0.753297ZM6.95672 4.71033C3.66983 8.09295 2.23381 11.667 2.23381 16.4538C2.23381 18.7195 3.0316 22.0702 4.05277 24.0168C4.85055 25.5805 4.24423 25.3252 3.3188 23.7296C1.88278 21.3043 1.27646 19.0067 1.27646 16.1347C1.27646 11.7628 2.42528 8.5078 4.88247 5.79532C6.0951 4.48695 8.48847 2.54034 8.87141 2.54034C8.96714 2.54034 8.10553 3.49769 6.95672 4.71033ZM18.8278 5.82723C18.8278 5.85914 17.9981 6.78458 16.9769 7.83766C14.7431 10.1034 13.3071 12.8478 12.5731 16.1666C11.8711 19.3258 12.0945 22.0383 13.3709 25.4847C13.6527 26.2636 13.9 26.9737 14.0637 27.4808C14.2288 27.9922 14.0663 28.082 13.7775 27.6288C13.5974 27.3462 13.3803 26.9896 13.1476 26.6016C10.3393 21.7192 10.5946 15.1773 13.7858 10.3906C14.7112 8.95456 18.8278 5.25282 18.8278 5.82723ZM27.9226 9.84808C29.6458 10.614 31.752 13.0711 32.3902 14.9858C32.9327 16.6133 33.0604 19.9321 32.6774 21.5596C32.1349 23.7934 30.0926 26.4102 28.0502 27.4633C26.5823 28.1972 23.8379 28.261 22.3062 27.6228C20.7744 26.9846 18.8597 25.038 18.0619 23.3148C17.5194 22.134 17.3918 21.2405 17.3918 18.6557C17.3918 15.7198 17.4556 15.3369 18.3491 13.7413C20.4872 9.88 24.4442 8.25251 27.9226 9.84808ZM48.7289 19.613C49.8139 20.0598 50.6117 20.8576 51.1223 22.0064C51.2818 22.3893 51.3457 22.3574 51.3457 21.8468C51.4414 19.996 52.5583 20.1236 53.5476 22.1021C55.1431 25.3252 55.1431 27.4313 53.5795 32.7925C52.9732 34.7391 52.7817 35.0582 52.2711 34.9306C51.7924 34.771 51.6967 34.8986 51.6967 35.6964C51.6967 38.728 50.3564 42.1745 48.3141 44.3445C46.6866 46.0677 46.2398 46.1953 45.9207 44.9508V44.9508C45.8606 44.7105 45.528 44.6879 45.436 44.9179L45.4101 44.9827C44.6442 46.8336 42.5062 47.8228 39.1874 47.8547C35.6771 47.8547 34.0177 47.025 30.284 43.4828C28.5289 41.7915 27.1886 40.3555 27.2844 40.2598C27.3801 40.164 28.3374 40.1002 29.4543 40.1321C30.9223 40.164 31.2095 40.1002 30.6032 39.9088C28.8161 39.3343 25.3058 37.2601 23.9337 35.9517L23.201 35.2679C22.9271 35.0123 23.0821 34.553 23.455 34.5157V34.5157C24.9229 34.3561 27.8269 33.4945 28.6566 32.952C29.3267 32.5372 29.6458 32.5372 31.369 32.9839C32.454 33.2392 34.5283 33.5264 35.9643 33.6222C39.1874 33.8136 41.1978 34.771 43.4635 37.0686C44.2932 37.9302 44.9953 38.5685 44.9953 38.4408C44.9953 38.3451 44.6123 37.4516 44.1656 36.4623C43.5912 35.2497 42.8891 34.3881 41.9318 33.7179C40.4 32.6329 40.3043 32.4734 41.0063 31.899C41.3574 31.6118 41.6446 31.6437 42.4423 32.2181C43.8465 33.2392 45.2825 33.3669 46.9738 32.601C48.9204 31.7394 50.5798 29.9204 51.3776 27.8143C52.1435 25.7719 52.0158 25.3571 50.9946 26.6655C49.0161 29.2822 46.1441 31.2607 44.3889 31.2607C43.2401 31.2607 41.5488 29.9204 40.9744 28.4844C39.5065 25.038 41.485 20.9214 45.2186 19.5811C46.8142 19.0386 47.3248 19.0386 48.7289 19.613ZM60.4085 24.1764C61.7169 25.6124 63.2487 31.2607 62.3551 31.2607C61.9722 31.2607 59.3555 28.5482 58.4619 27.208C57.6961 26.123 57.5365 24.0806 58.1747 23.8253C59.0044 23.4743 59.898 23.6339 60.4085 24.1764Z" fill="#2A2A2A"/>
<path d="M24.7634 16.9324C23.5188 18.4004 23.7103 20.7937 25.1782 21.9106C25.9122 22.485 26.6461 22.4212 27.4758 21.6553C28.2098 21.049 28.2098 21.0171 27.5397 21.3362C26.5185 21.8468 26.2313 21.783 25.3697 20.8895C24.3804 19.9321 24.3485 18.5599 25.242 17.3792C25.8483 16.6452 26.1036 16.5495 27.0929 16.741C28.1779 16.9324 28.2098 16.9324 27.6035 16.4538C26.6142 15.6879 25.6569 15.8474 24.7634 16.9324Z" fill="#2A2A2A"/>
</svg>
