<svg width="113" height="113" viewBox="0 0 113 113" fill="none" xmlns="http://www.w3.org/2000/svg">
<g filter="url(#filter0_d)">
<rect x="13" y="9" width="87" height="87" rx="15" fill="white"/>
<path d="M34.382 26.7533C31.9886 27.6468 30.9355 28.3808 28.9251 30.5827C26.2126 33.5505 25 36.9969 25 41.7836C25 50.1764 29.4357 55.5375 36.9987 56.2715C38.8177 56.431 39.4559 56.6544 40.3175 57.3565C40.8919 57.867 42.1046 58.6329 42.9981 59.0797C45.0085 60.1009 47.019 62.207 48.4869 64.8238C50.4654 68.3659 54.5501 73.3441 56.4648 74.6206C57.9327 75.5779 66.8998 78.9606 67.9848 78.9606C69.1975 78.9606 73.0907 76.1843 74.4629 74.3653C75.9308 72.3868 77.2392 69.802 80.0155 63.3239C81.1643 60.6114 82.2493 58.1862 82.4089 57.9628C82.7918 57.3245 84.1321 58.1223 86.1106 60.1009C86.9722 60.9944 87.77 61.7283 87.8976 61.7283C88.4082 61.7283 88.8869 57.9628 88.7593 55.2184C88.5678 50.9742 87.4509 49.0275 83.813 46.6023C81.8664 45.2939 81.643 44.177 83.2066 43.5388C83.813 43.2835 83.813 43.2516 82.9833 43.2516C82.5046 43.2196 81.0686 43.6664 79.7921 44.2089C75.9308 45.8683 74.3991 45.5173 73.0907 42.6133L72.9606 42.312C72.7427 41.8076 72.0688 41.7113 71.7185 42.1347V42.1347C71.5312 42.3652 71.3634 42.5957 71.2328 42.7909C71.0229 43.1046 70.8832 43.5388 70.5059 43.5388V43.5388C69.8357 43.5388 69.2613 41.4326 69.4528 39.6775C69.7081 37.667 70.9207 35.3694 72.612 33.7738C73.9204 32.4974 76.601 30.7742 77.2073 30.7742C77.3668 30.7742 76.6967 31.6358 75.6755 32.7208C73.4736 35.0184 73.2183 35.88 75.2926 33.9653C76.0904 33.2313 77.4945 32.3059 78.388 31.8911C79.9836 31.1571 84.1321 30.1678 85.6957 30.104C86.7807 30.0721 83.9725 28.8914 81.8983 28.5084C77.0796 27.6149 71.0164 30.9018 68.7826 35.6566C67.9529 37.4118 67.4104 40.571 67.6657 42.1027C67.8253 43.1239 67.6976 43.3792 66.2297 44.9429C63.964 47.3362 63.4534 49.1871 63.7087 53.9738L63.7695 55.1187C63.8387 56.4226 62.7448 57.4898 61.443 57.3884V57.3884C58.539 57.1969 56.9115 56.9735 56.9115 56.7821C56.9115 56.6863 57.5817 55.729 58.3795 54.644C60.3261 51.9953 60.9005 50.7827 61.7302 47.8149C62.2408 45.9002 62.3684 44.7514 62.2727 42.7729C61.9216 36.7735 58.7624 31.5719 54.1033 29.2743C52.4439 28.4765 51.9652 28.3808 48.7741 28.3808C45.5829 28.3489 45.1362 28.2851 43.9874 27.5511C41.243 25.8279 37.6689 25.5087 34.382 26.7533ZM31.9567 30.7103C28.6698 34.093 27.2338 37.667 27.2338 42.4538C27.2338 44.7195 28.0316 48.0702 29.0528 50.0168C29.8506 51.5805 29.2442 51.3252 28.3188 49.7296C26.8828 47.3043 26.2765 45.0067 26.2765 42.1347C26.2765 37.7628 27.4253 34.5078 29.8825 31.7953C31.0951 30.4869 33.4885 28.5403 33.8714 28.5403C33.9671 28.5403 33.1055 29.4977 31.9567 30.7103ZM43.8278 31.8272C43.8278 31.8591 42.9981 32.7846 41.9769 33.8377C39.7431 36.1034 38.3071 38.8478 37.5731 42.1666C36.8711 45.3258 37.0945 48.0383 38.3709 51.4847C38.6527 52.2636 38.9 52.9737 39.0637 53.4808C39.2288 53.9922 39.0663 54.082 38.7775 53.6288C38.5974 53.3462 38.3803 52.9896 38.1476 52.6016C35.3393 47.7192 35.5946 41.1773 38.7858 36.3906C39.7112 34.9546 43.8278 31.2528 43.8278 31.8272ZM52.9226 35.8481C54.6458 36.614 56.752 39.0711 57.3902 40.9858C57.9327 42.6133 58.0604 45.9321 57.6774 47.5596C57.1349 49.7934 55.0926 52.4102 53.0502 53.4633C51.5823 54.1972 48.8379 54.261 47.3062 53.6228C45.7744 52.9846 43.8597 51.038 43.0619 49.3148C42.5194 48.134 42.3918 47.2405 42.3918 44.6557C42.3918 41.7198 42.4556 41.3369 43.3491 39.7413C45.4872 35.88 49.4442 34.2525 52.9226 35.8481ZM73.7289 45.613C74.8139 46.0598 75.6117 46.8576 76.1223 48.0064C76.2818 48.3893 76.3457 48.3574 76.3457 47.8468C76.4414 45.996 77.5583 46.1236 78.5476 48.1021C80.1431 51.3252 80.1431 53.4313 78.5795 58.7925C77.9732 60.7391 77.7817 61.0582 77.2711 60.9306C76.7924 60.771 76.6967 60.8986 76.6967 61.6964C76.6967 64.728 75.3564 68.1745 73.3141 70.3445C71.6866 72.0677 71.2398 72.1953 70.9207 70.9508V70.9508C70.8606 70.7105 70.528 70.6879 70.436 70.9179L70.4101 70.9827C69.6442 72.8336 67.5062 73.8228 64.1874 73.8547C60.6771 73.8547 59.0177 73.025 55.284 69.4828C53.5289 67.7915 52.1886 66.3555 52.2844 66.2598C52.3801 66.164 53.3374 66.1002 54.4543 66.1321C55.9223 66.164 56.2095 66.1002 55.6032 65.9088C53.8161 65.3343 50.3058 63.2601 48.9337 61.9517L48.201 61.2679C47.9271 61.0123 48.0821 60.553 48.455 60.5157V60.5157C49.9229 60.3561 52.8269 59.4945 53.6566 58.952C54.3267 58.5372 54.6458 58.5372 56.369 58.9839C57.454 59.2392 59.5283 59.5264 60.9643 59.6222C64.1874 59.8136 66.1978 60.771 68.4635 63.0686C69.2932 63.9302 69.9953 64.5685 69.9953 64.4408C69.9953 64.3451 69.6123 63.4516 69.1656 62.4623C68.5912 61.2497 67.8891 60.3881 66.9318 59.7179C65.4 58.6329 65.3043 58.4734 66.0063 57.899C66.3574 57.6118 66.6446 57.6437 67.4423 58.2181C68.8465 59.2392 70.2825 59.3669 71.9738 58.601C73.9204 57.7394 75.5798 55.9204 76.3776 53.8143C77.1435 51.7719 77.0158 51.3571 75.9946 52.6655C74.0161 55.2822 71.1441 57.2607 69.3889 57.2607C68.2401 57.2607 66.5488 55.9204 65.9744 54.4844C64.5065 51.038 66.485 46.9214 70.2186 45.5811C71.8142 45.0386 72.3248 45.0386 73.7289 45.613ZM85.4085 50.1764C86.7169 51.6124 88.2487 57.2607 87.3551 57.2607C86.9722 57.2607 84.3555 54.5482 83.4619 53.208C82.6961 52.123 82.5365 50.0806 83.1747 49.8253C84.0044 49.4743 84.898 49.6339 85.4085 50.1764Z" fill="#2A2A2A"/>
<path d="M49.7634 42.9324C48.5188 44.4004 48.7103 46.7937 50.1782 47.9106C50.9122 48.485 51.6461 48.4212 52.4758 47.6553C53.2098 47.049 53.2098 47.0171 52.5397 47.3362C51.5185 47.8468 51.2313 47.783 50.3697 46.8895C49.3804 45.9321 49.3485 44.5599 50.242 43.3792C50.8483 42.6452 51.1036 42.5495 52.0929 42.741C53.1779 42.9324 53.2098 42.9324 52.6035 42.4538C51.6142 41.6879 50.6569 41.8474 49.7634 42.9324Z" fill="#2A2A2A"/>
</g>
<defs>
<filter id="filter0_d" x="0" y="0" width="113" height="113" filterUnits="userSpaceOnUse" color-interpolation-filters="sRGB">
<feFlood flood-opacity="0" result="BackgroundImageFix"/>
<feColorMatrix in="SourceAlpha" type="matrix" values="0 0 0 0 0 0 0 0 0 0 0 0 0 0 0 0 0 0 127 0" result="hardAlpha"/>
<feOffset dy="4"/>
<feGaussianBlur stdDeviation="6.5"/>
<feComposite in2="hardAlpha" operator="out"/>
<feColorMatrix type="matrix" values="0 0 0 0 0 0 0 0 0 0 0 0 0 0 0 0 0 0 0.12 0"/>
<feBlend mode="normal" in2="BackgroundImageFix" result="effect1_dropShadow"/>
<feBlend mode="normal" in="SourceGraphic" in2="effect1_dropShadow" result="shape"/>
</filter>
</defs>
</svg>
