<svg width="133" height="53" viewBox="0 0 133 53" fill="none" xmlns="http://www.w3.org/2000/svg">
<path d="M91.041 28.0703H83.3027V36H78.5039V16.0938H91.8203V19.7988H83.3027V24.3789H91.041V28.0703ZM100.145 36H95.5238V21.207H100.145V36ZM95.2503 17.3926C95.2503 16.7363 95.4873 16.1986 95.9613 15.7793C96.4352 15.36 97.0504 15.1504 97.807 15.1504C98.5635 15.1504 99.1787 15.36 99.6527 15.7793C100.127 16.1986 100.364 16.7363 100.364 17.3926C100.364 18.0488 100.127 18.5866 99.6527 19.0059C99.1787 19.4251 98.5635 19.6348 97.807 19.6348C97.0504 19.6348 96.4352 19.4251 95.9613 19.0059C95.4873 18.5866 95.2503 18.0488 95.2503 17.3926ZM110.042 17.5293V21.207H112.475V24.4062H110.042V31.1738C110.042 31.7298 110.142 32.1172 110.342 32.3359C110.543 32.5547 110.939 32.6641 111.532 32.6641C111.988 32.6641 112.37 32.6367 112.68 32.582V35.877C111.851 36.1413 110.985 36.2734 110.083 36.2734C108.497 36.2734 107.325 35.8997 106.569 35.1523C105.812 34.4049 105.434 33.2702 105.434 31.748V24.4062H103.548V21.207H105.434V17.5293H110.042ZM123.616 22.7109L126.87 16.0938H132.353L126.788 25.9648L132.503 36H126.966L123.616 29.2598L120.267 36H114.743L120.444 25.9648L114.894 16.0938H120.362L123.616 22.7109Z" fill="#3B82F6"/>
<path d="M9.38199 0.753174C6.98863 1.6467 5.93555 2.38066 3.92512 4.58256C1.21264 7.55033 0 10.9968 0 15.7835C0 24.1762 4.4357 29.5374 11.9987 30.2713C13.8177 30.4309 14.4559 30.6543 15.3175 31.3563C15.8919 31.8669 17.1046 32.6328 17.9981 33.0796C20.0085 34.1007 22.019 36.2069 23.4869 38.8236C25.4654 42.3658 29.5501 47.344 31.4648 48.6205C32.9327 49.5778 41.8998 52.9604 42.9848 52.9604C44.1975 52.9604 48.0907 50.1841 49.4629 48.3652C50.9308 46.3867 52.2392 43.8018 55.0155 37.3238C56.1643 34.6113 57.2493 32.186 57.4089 31.9627C57.7918 31.3244 59.1321 32.1222 61.1106 34.1007C61.9722 34.9943 62.77 35.7282 62.8976 35.7282C63.4082 35.7282 63.8869 31.9627 63.7593 29.2183C63.5678 24.974 62.4509 23.0274 58.813 20.6021C56.8664 19.2938 56.643 18.1769 58.2066 17.5386C58.813 17.2834 58.813 17.2514 57.9833 17.2514C57.5046 17.2195 56.0686 17.6663 54.7921 18.2088C50.9308 19.8682 49.3991 19.5172 48.0907 16.6132L47.9606 16.3119C47.7427 15.8075 47.0688 15.7112 46.7185 16.1345C46.5312 16.365 46.3634 16.5955 46.2328 16.7908C46.0229 17.1045 45.8832 17.5386 45.5059 17.5386C44.8357 17.5386 44.2613 15.4325 44.4528 13.6773C44.7081 11.6669 45.9207 9.36929 47.612 7.77371C48.9204 6.49725 51.601 4.77403 52.2073 4.77403C52.3668 4.77403 51.6967 5.63564 50.6755 6.72063C48.4736 9.01826 48.2183 9.87988 50.2926 7.96518C51.0904 7.23122 52.4945 6.30578 53.388 5.89093C54.9836 5.15697 59.1321 4.16771 60.6957 4.10389C61.7807 4.07198 58.9725 2.89125 56.8983 2.50831C52.0796 1.61478 46.0164 4.90168 43.7826 9.65649C42.9529 11.4116 42.4104 14.5709 42.6657 16.1026C42.8253 17.1238 42.6976 17.3791 41.2297 18.9427C38.964 21.3361 38.4534 23.187 38.7087 27.9737L38.7695 29.1185C38.8387 30.4225 37.7448 31.4897 36.443 31.3883C33.539 31.1968 31.9115 30.9734 31.9115 30.7819C31.9115 30.6862 32.5817 29.7288 33.3795 28.6439C35.3261 25.9952 35.9005 24.7826 36.7302 21.8148C37.2408 19.9001 37.3684 18.7513 37.2727 16.7728C36.9216 10.7734 33.7624 5.57182 29.1033 3.27419C27.4439 2.4764 26.9652 2.38066 23.7741 2.38066C20.5829 2.34875 20.1362 2.28493 18.9874 1.55096C16.243 -0.17226 12.6689 -0.491375 9.38199 0.753174ZM6.95672 4.71021C3.66983 8.09283 2.23381 11.6669 2.23381 16.4537C2.23381 18.7194 3.0316 22.0701 4.05277 24.0167C4.85055 25.5804 4.24423 25.3251 3.3188 23.7295C1.88278 21.3042 1.27646 19.0066 1.27646 16.1345C1.27646 11.7627 2.42528 8.50768 4.88247 5.7952C6.0951 4.48682 8.48847 2.54022 8.87141 2.54022C8.96714 2.54022 8.10553 3.49757 6.95672 4.71021ZM18.8278 5.82711C18.8278 5.85902 17.9981 6.78445 16.9769 7.83754C14.7431 10.1033 13.3071 12.8476 12.5731 16.1664C11.8711 19.3257 12.0945 22.0382 13.3709 25.4846C13.6527 26.2635 13.9 26.9736 14.0637 27.4807C14.2288 27.9921 14.0663 28.0819 13.7775 27.6287C13.5974 27.3461 13.3803 26.9895 13.1476 26.6015C10.3393 21.7191 10.5946 15.1772 13.7858 10.3905C14.7112 8.95444 18.8278 5.2527 18.8278 5.82711ZM27.9226 9.84796C29.6458 10.6138 31.752 13.071 32.3902 14.9857C32.9327 16.6132 33.0604 19.932 32.6774 21.5595C32.1349 23.7933 30.0926 26.41 28.0502 27.4631C26.5823 28.1971 23.8379 28.2609 22.3062 27.6227C20.7744 26.9845 18.8597 25.0379 18.0619 23.3146C17.5194 22.1339 17.3918 21.2404 17.3918 18.6555C17.3918 15.7197 17.4556 15.3367 18.3491 13.7412C20.4872 9.87988 24.4442 8.25238 27.9226 9.84796ZM48.7289 19.6129C49.8139 20.0597 50.6117 20.8574 51.1223 22.0063C51.2818 22.3892 51.3457 22.3573 51.3457 21.8467C51.4414 19.9958 52.5583 20.1235 53.5476 22.102C55.1431 25.3251 55.1431 27.4312 53.5795 32.7924C52.9732 34.739 52.7817 35.0581 52.2711 34.9304C51.7924 34.7709 51.6967 34.8985 51.6967 35.6963C51.6967 38.7279 50.3564 42.1743 48.3141 44.3443C46.6866 46.0676 46.2398 46.1952 45.9207 44.9507C45.8606 44.7104 45.528 44.6878 45.436 44.9178L45.4101 44.9826C44.6442 46.8334 42.5062 47.8227 39.1874 47.8546C35.6771 47.8546 34.0177 47.0249 30.284 43.4827C28.5289 41.7914 27.1886 40.3554 27.2844 40.2597C27.3801 40.1639 28.3374 40.1001 29.4543 40.132C30.9223 40.1639 31.2095 40.1001 30.6032 39.9086C28.8161 39.3342 25.3058 37.26 23.9337 35.9516L23.201 35.2678C22.9271 35.0121 23.0821 34.5529 23.455 34.5156C24.9229 34.356 27.8269 33.4944 28.6566 32.9519C29.3267 32.5371 29.6458 32.5371 31.369 32.9838C32.454 33.2391 34.5283 33.5263 35.9643 33.6221C39.1874 33.8135 41.1978 34.7709 43.4635 37.0685C44.2932 37.9301 44.9953 38.5683 44.9953 38.4407C44.9953 38.345 44.6123 37.4514 44.1656 36.4622C43.5912 35.2495 42.8891 34.3879 41.9318 33.7178C40.4 32.6328 40.3043 32.4732 41.0063 31.8988C41.3574 31.6116 41.6446 31.6435 42.4423 32.218C43.8465 33.2391 45.2825 33.3668 46.9738 32.6009C48.9204 31.7393 50.5798 29.9203 51.3776 27.8142C52.1435 25.7718 52.0158 25.357 50.9946 26.6653C49.0161 29.2821 46.1441 31.2606 44.3889 31.2606C43.2401 31.2606 41.5488 29.9203 40.9744 28.4843C39.5065 25.0379 41.485 20.9213 45.2186 19.581C46.8142 19.0385 47.3248 19.0385 48.7289 19.6129ZM60.4085 24.1762C61.7169 25.6123 63.2487 31.2606 62.3551 31.2606C61.9722 31.2606 59.3555 28.5481 58.4619 27.2078C57.6961 26.1228 57.5365 24.0805 58.1747 23.8252C59.0044 23.4742 59.898 23.6337 60.4085 24.1762Z" fill="#3B82F6"/>
<path d="M24.7634 16.9324C23.5188 18.4004 23.7103 20.7937 25.1782 21.9106C25.9122 22.485 26.6461 22.4212 27.4758 21.6553C28.2098 21.049 28.2098 21.0171 27.5397 21.3362C26.5185 21.8468 26.2313 21.783 25.3697 20.8895C24.3804 19.9321 24.3485 18.5599 25.242 17.3792C25.8483 16.6452 26.1036 16.5495 27.0929 16.741C28.1779 16.9324 28.2098 16.9324 27.6035 16.4538C26.6142 15.6879 25.6569 15.8474 24.7634 16.9324Z" fill="#3B82F6"/>
</svg>
